<svg height="512pt" viewBox="-16 0 512 512" width="512pt" xmlns="http://www.w3.org/2000/svg"><path d="m410.496094 220.371094 27.667968 110.679687h41.699219v-29.992187h-18.28125l-32.3125-129.25-57.34375 38.226562c-3.894531-10.160156-11.367187-18.5625-20.875-23.648437-1.441406-10.871094-5.300781-23.003907-11.222656-32.285157h29.335937l33.097657-97.660156 54.839843-30.164062-14.453124-26.277344-65.128907 35.820312-29.972656 88.289063h-32.636719v-17.996094c0-6.9375-1.578125-13.511719-4.394531-19.382812l34.386719-34.386719v-52.199219h-29.992188v39.773438l-25.601562 25.605469c-5.875-2.816407-12.449219-4.398438-19.386719-4.398438h-59.980469c-6.9375 0-13.511718 1.582031-19.382812 4.398438l-25.605469-25.605469v-39.773438h-29.992187v52.195313l34.390624 34.390625c-2.816406 5.871093-4.398437 12.445312-4.398437 19.382812v17.992188h-32.636719l-29.972656-88.285157-65.125-35.820312-14.453125 26.277344 54.839844 30.164062 33.09375 97.457032h29.335937c-5.917968 9.285156-9.777344 21.617187-11.222656 32.488281-9.507812 5.085937-16.980469 13.488281-20.875 23.648437l-57.339844-38.226562-32.316406 129.25h-18.28125v29.992187h41.699219l27.671875-110.679687 35.597656 23.730468v101.132813l-62.878906 20.960937 28.714844 115.8125h-40.8125v29.992188h79.148437l-31.265625-126.117188 27.808594-9.273437c6.402344 58.492187 55.933594 104.398437 116.679687 104.398437h35.136719c60.691406 0 110.273438-45.867187 116.679688-104.398437l27.8125 9.273437-31.269532 126.117188h79.152344v-29.992188h-40.816406l28.714844-115.8125-62.878907-20.960937v-101.132813zm-155.566406 176.390625v-140.691407c0-19.546874 12.535156-36.214843 29.992187-42.40625v198.09375zm-59.984376-183.097657c17.453126 6.191407 29.992188 22.859376 29.992188 42.40625v140.691407l-29.992188 14.996093zm104.972657-32.570312c-24.5 0-46.292969 11.808594-59.984375 30.039062-13.691406-18.230468-35.484375-30.039062-59.984375-30.039062h-19.175781c6.328124-17.722656 22.871093-29.992188 42.414062-29.992188h73.488281c19.660157 0 36.128907 12.382813 42.417969 29.992188zm-89.976563-89.976562h59.984375c8.265625 0 14.996094 6.726562 14.996094 14.996093v15.453125c-2.71875-.292968-5.46875-.457031-8.246094-.457031h-73.488281c-2.777344 0-5.523438.164063-8.242188.457031v-15.453125c0-8.269531 6.726563-14.996093 14.996094-14.996093zm-74.980468 272.5v-137.539063c0-8.265625 6.726562-14.992187 14.996093-14.992187h14.996094v215.667968l-1.960937.980469c-18.613282-17.269531-28.03125-40.398437-28.03125-64.117187zm87.402343 87.398437c-10.042969 0-19.824219-1.691406-29.027343-4.921875l46.597656-23.296875 46.59375 23.296875c-9.203125 3.230469-18.980469 4.921875-29.023438 4.921875zm122.539063-87.398437c0 23.71875-9.414063 46.84375-28.03125 64.117187l-1.960938-.980469v-215.667968h14.996094c8.269531 0 14.996094 6.726562 14.996094 14.992187zm0 0"/></svg>