<svg height="511pt" viewBox="-60 0 511 511.92917" width="511pt" xmlns="http://www.w3.org/2000/svg"><path d="m196.480469 477.796875h8.53125c4.714843 0 8.535156-3.820313 8.535156-8.535156 0-4.710938-3.820313-8.53125-8.535156-8.53125h-8.53125c-4.714844 0-8.535157 3.820312-8.535157 8.53125 0 4.714843 3.820313 8.535156 8.535157 8.535156zm0 0"/><path d="m94.078125 469.261719c0 4.714843 3.820313 8.535156 8.535156 8.535156h59.734375c4.710938 0 8.53125-3.820313 8.53125-8.535156 0-4.710938-3.820312-8.53125-8.53125-8.53125h-59.734375c-4.714843 0-8.535156 3.820312-8.535156 8.53125zm0 0"/><path d="m27.109375 340.640625c.820313 23.949219 6.425781 47.496094 16.488281 69.246094 3.828125 10.0625 8.875 19.617187 15.027344 28.449219.90625 1.410156 1.367188 3.054687 1.320312 4.730468v43.261719c0 14.140625 11.460938 25.601563 25.601563 25.601563h136.53125c14.140625 0 25.601563-11.460938 25.601563-25.601563v-3.15625c0-16.035156.769531-31.453125 10-43.902344 3.410156-4.351562 7.183593-8.402343 11.28125-12.109375 28.253906-26.949218 44.160156-61.570312 59.539062-95.046875 14.882812-32.355469 28.917969-62.933593 53.210938-87.21875 8.59375-7.296875 11.683593-19.199219 7.734374-29.753906-5.679687-11.8125-17.730468-19.21875-30.832031-18.945313-23.332031 0-60.585937 41.378907-75.367187 63.53125-5.085938 7.722657-11.054688 14.832032-17.78125 21.179688-1.613282 1.5-3.261719 2.960938-4.96875 4.34375-2.550782 2.128906-5.273438 4.046875-8.140625 5.734375-.875.464844-1.664063 1.082031-2.320313 1.824219-.339844.214844-.648437.480468-.988281.683594-.34375.207031-.734375.375-1.09375.589843v-234.929687c.316406-18.851563-14.707031-34.394532-33.558594-34.710938-18.851562-.320312-34.390625 14.707032-34.707031 33.558594l-1.894531 116.949219-16.761719-77.792969-15.667969-68.921875c-3.511719-18.242187-20.734375-30.511719-39.125-27.878906-9.207031 1.492187-17.40625 6.6875-22.6875 14.378906-5.277343 7.695313-7.179687 17.210937-5.257812 26.34375l38.058593 194.371094c.683594 3.53125-.933593 7.113281-4.039062 8.933593-3.105469 1.820313-7.019531 1.480469-9.769531-.84375l-22.390625-28.160156c-7.527344-9.734375-19.714844-14.664062-31.890625-12.898437-12.179688 1.765625-22.46875 9.945312-26.925781 21.417969-4.457032 11.46875-2.394532 24.453124 5.398437 33.976562l2.945313 3.703125c-5.953126.8125-11.582032 3.203125-16.300782 6.921875-7.101562 5.632812-11.667968 13.863281-12.695312 22.871094-1.027344 9.007812 1.574218 18.054687 7.226562 25.144531zm91.785156-80.445313c10.644531-4.902343 16.527344-16.472656 14.214844-27.964843l-38.101563-194.585938c-.996093-4.582031-.0625-9.371093 2.582032-13.246093 2.644531-3.875 6.765625-6.488282 11.398437-7.230469 9.417969-1.03125 18.027344 5.402343 19.710938 14.726562l15.675781 68.914063 28.484375 132.199218c1.035156 5.371094 6.046875 9.027344 11.476563 8.371094 5.421874-.46875 9.59375-4.992187 9.625-10.433594l2.792968-172.648437c.0625-4.550781 1.941406-8.890625 5.222656-12.046875 3.21875-3.191406 7.613282-4.902344 12.140626-4.730469 4.507812.03125 8.816406 1.878907 11.949218 5.121094 3.214844 3.292969 4.953125 7.753906 4.820313 12.355469v242.03125c-1.28125.394531-2.5625.792968-3.859375 1.1875-12.988282 3.421875-24.242188 11.558594-31.570313 22.816406-4.800781 7.371094-7.414062 15.953125-7.542969 24.746094 0 4.714844 3.820313 8.535156 8.53125 8.535156 4.714844 0 8.535157-3.820312 8.535157-8.535156.128906-5.574219 1.832031-11.003906 4.90625-15.65625 5.132812-7.765625 12.992187-13.324219 22.023437-15.582032 9.078125-2.339843 17.808594-5.863281 25.96875-10.480468 3.214844-1.953125 6.296875-4.171875 9.332032-6.441406l.1875-.136719c1.164062-.855469 2.296874-1.757813 3.414062-2.671875 2.21875-1.773438 4.617188-3.824219 7.261719-6.367188.480469-.441406 1.007812-.851562 1.476562-1.285156.175781-.230469.339844-.464844.488281-.710938 6.492188-6.488281 12.320313-13.605468 17.40625-21.246093 18.125-27.1875 49.5625-55.9375 61.167969-55.9375 6.183594-.1875 11.972657 3.042969 15.0625 8.40625 1.390625 3.34375 0 7.097656-4.027343 11.160156-26.457032 26.453125-41.816407 59.855469-56.65625 92.160156-15.359376 33.496094-29.925782 65.128907-55.804688 89.824219-4.808594 4.375-9.234375 9.15625-13.21875 14.292969-12.324219 16.613281-13.355469 35.839843-13.355469 54.066406v3.15625c0 4.714844-3.820312 8.535156-8.535156 8.535156h-136.53125c-4.714844 0-8.535156-3.820312-8.535156-8.535156v-43.261719c.054687-5.125-1.453125-10.140625-4.316407-14.386718-5.363281-7.703126-9.769531-16.03125-13.117187-24.800782-.101563-.3125-.226563-.617187-.375-.910156-5.433594-12.050781-9.59375-24.632812-12.40625-37.546875l24.855469 31.222656c11.824218 14.449219 33.058594 16.71875 47.671875 5.097657 14.609375-11.621094 17.167969-32.828126 5.75-47.59375l-2.878907-3.609376c12.074219-1.769531 22.28125-9.859374 26.757813-21.207031 4.480469-11.351562 2.546875-24.230469-5.0625-33.765625l-27.351563-34.441406c.761719-.289062 1.570313-.535156 2.355469-.929688zm-82.40625-25.480468c.796875-6.851563 5.636719-12.546875 12.265625-14.441406 6.632813-1.890626 13.753906.390624 18.042969 5.789062l21.675781 27.238281-.179687.179688c.511719.613281 1.101562 1.132812 1.65625 1.707031l40.59375 51.035156c5.863281 7.378906 4.636719 18.117188-2.738281 23.980469-7.375 5.859375-18.105469 4.640625-23.972657-2.730469l-6.050781-7.601562-57.691406-72.535156c-2.847656-3.542969-4.144532-8.082032-3.601563-12.59375zm-18.824219 58.582031c.78125-6.859375 5.617188-12.570313 12.25-14.472656 6.632813-1.902344 13.761719.375 18.058594 5.777343l34.058594 42.804688 8.449219 10.628906 21.238281 26.710938c5.867188 7.378906 4.640625 18.121094-2.738281 23.988281-7.382813 5.867187-18.121094 4.640625-23.988281-2.738281l-63.734376-80.136719c-2.820312-3.535156-4.113281-8.046875-3.59375-12.539063zm0 0"/></svg>