<?xml version="1.0" encoding="iso-8859-1"?>
<!-- Generator: Adobe Illustrator 18.0.0, SVG Export Plug-In . SVG Version: 6.00 Build 0)  -->
<!DOCTYPE svg PUBLIC "-//W3C//DTD SVG 1.1//EN" "http://www.w3.org/Graphics/SVG/1.1/DTD/svg11.dtd">
<svg version="1.1" id="Capa_1" xmlns="http://www.w3.org/2000/svg" xmlns:xlink="http://www.w3.org/1999/xlink" x="0px" y="0px"
	 viewBox="0 0 60.544 60.544" style="enable-background:new 0 0 60.544 60.544;" xml:space="preserve">
<g>
	<path style="fill:#1D1D1B;" d="M47.074,52.56c-0.473-1.859-2.036-3.451-2.806-5.241c-0.866-2.014-1.307-4.083-1.823-6.2
		c-0.174-0.717-1.063-0.677-1.383-0.163c-0.126,0.064-0.245,0.152-0.344,0.292c-0.858,1.881-2.353,2.736-4.484,2.563
		c-1.808,1.293-3.145,1.115-4.012-0.534c-1.478-1.133-1.885-3.008-2.392-4.694c-0.832-2.767-1.402-5.744-1.866-8.597
		c-0.554-3.402-0.855-6.923-0.228-10.333c0.113-1.249,0.469-2.431,1.069-3.546c2.107-0.43,4.215-0.861,6.322-1.291
		c0.996,0.264,3.44,2.558,4.049,3.111c0.252,0.229,0.675-0.063,0.486-0.375c-0.022-0.036-0.046-0.072-0.069-0.108
		c0.115-0.005,0.234-0.022,0.352-0.074c1.181-0.519,1.717-2.058,2.305-3.137c0.733-1.344,1.393-2.708,2.052-4.09
		c0.043-0.09,0.064-0.177,0.073-0.259c0.137-0.205,0.19-0.457,0.072-0.738C41.3,1.645,32.553-2.189,25.012,1.303
		c-9.137,4.23-11.812,14.873-11.551,24.09c0.174,6.116,1.016,12.422,2.304,18.4c1.002,4.649,2.422,9.642,5.919,13.074
		c7.408,7.27,17.798,2.491,24.293-3.384C46.572,53.734,47.243,53.221,47.074,52.56z M41.077,43.785
		c0.09,0.621,0.226,1.237,0.386,1.845c-0.863,0.04-1.726,0.081-2.59,0.122C39.686,45.226,40.434,44.556,41.077,43.785z
		 M38.802,16.245c-0.452-0.634-0.961-1.246-1.504-1.815c0.866-0.254,1.711-0.328,2.586-0.379
		C39.392,14.732,38.907,15.46,38.802,16.245z M40.491,13.204c-0.09,0.133-0.187,0.268-0.286,0.405
		c-1.018-0.076-2.074,0.151-3.016,0.505c-0.049,0.018-0.081,0.051-0.098,0.09c-0.659-0.661-1.375-1.243-2.142-1.675
		c2.063-0.022,4.123-0.085,6.168-0.215C40.908,12.61,40.695,12.902,40.491,13.204z M41.328,54.509
		c-0.029-0.012-0.051-0.035-0.089-0.033c-3.681,0.274-7.387,0.829-11.038,1.375c-0.163,0.025-0.126,0.303,0.039,0.29
		c3.319-0.267,6.679-0.55,9.983-1.018c-6.573,3.513-14.372,5.165-19.072-2.482c-4.087-6.649-4.73-16.116-5.375-23.666
		c-0.672-7.869-0.229-16.839,5.765-22.735c3.439-3.383,7.668-4.584,11.566-3.879c-1.589,0.131-3.181,0.435-4.644,0.836
		c-0.197,0.054-0.11,0.327,0.082,0.298c2.163-0.327,4.297-0.468,6.453-0.639c0.995,0.351,1.954,0.832,2.855,1.441
		c-3.642-0.029-7.282,0.178-10.892,0.684c-0.192,0.027-0.148,0.358,0.046,0.341c3.868-0.349,7.719-0.524,11.598-0.499
		c0.553,0.434,1.07,0.937,1.566,1.471c-4.894,0.201-9.794,0.521-14.674,0.917c-0.13,0.011-0.135,0.209,0,0.206
		c5.038-0.113,10.088-0.308,15.118-0.631c0.467,0.551,0.892,1.162,1.293,1.803c-5.997,0.072-12.024,0.764-17.944,1.647
		c-0.173,0.026-0.134,0.327,0.042,0.308c6.06-0.639,12.127-0.973,18.197-1.442c0.152,0.265,0.318,0.514,0.457,0.795
		c0.029,0.06,0.076,0.095,0.114,0.142c-0.433,0.575-0.86,1.152-1.281,1.734c-2.794-0.092-5.612-0.051-8.428,0.046
		c-0.715-0.135-1.46-0.116-2.23,0.085c-1.87,0.079-3.736,0.17-5.588,0.251c-0.207,0.009-0.209,0.322,0,0.323
		c1.365,0.011,2.737,0.028,4.113,0.041c-0.143,0.082-0.286,0.156-0.431,0.252c-0.639,0.425-1.169,0.953-1.62,1.548
		c-1.197,0.053-2.429,0.234-3.56,0.351c-0.211,0.022-0.222,0.34,0,0.337c0.986-0.01,2.052,0.014,3.1-0.029
		c-0.478,0.788-0.827,1.677-1.085,2.619c-1.254,0.025-2.553,0.224-3.765,0.323c-0.208,0.017-0.214,0.336,0,0.328
		c1.166-0.042,2.42-0.009,3.624-0.112c-0.167,0.722-0.272,1.473-0.347,2.232c-1.092-0.019-2.189,0.025-3.279,0.044
		c-0.199,0.003-0.199,0.306,0,0.309c1.076,0.019,2.157,0.062,3.235,0.045c-0.08,1.001-0.091,2.012-0.062,2.997
		c-1.14,0.158-2.225,0.231-3.409,0.018c-0.149-0.027-0.215,0.195-0.063,0.231c1.12,0.259,2.337,0.363,3.488,0.165
		c0.047,1.131,0.145,2.212,0.256,3.193c-1.148-0.022-2.297-0.002-3.444,0.021c-0.226,0.005-0.227,0.347,0,0.352
		c1.163,0.023,2.327,0.044,3.489,0.02c0.033,0.277,0.067,0.552,0.101,0.808c0.065,0.49,0.131,1.019,0.2,1.567
		c-1.097,0.005-2.195,0.029-3.29,0.065c-0.148,0.005-0.148,0.225,0,0.23c1.11,0.037,2.224,0.061,3.336,0.065
		c0.094,0.742,0.197,1.529,0.314,2.335c-1.129-0.125-2.262-0.189-3.398-0.252c-0.276-0.015-0.27,0.403,0,0.427
		c1.153,0.102,2.304,0.208,3.46,0.243c0.109,0.722,0.234,1.459,0.375,2.198c-1.197,0.04-2.392,0.135-3.586,0.222
		c-0.217,0.016-0.222,0.348,0,0.342c1.222-0.034,2.447-0.058,3.667-0.142c0.172,0.852,0.375,1.701,0.609,2.533
		c-1.426-0.02-2.851,0.002-4.277,0.033c-0.169,0.004-0.169,0.259,0,0.263c1.456,0.032,2.912,0.055,4.367,0.032
		c0.216,0.733,0.463,1.447,0.742,2.132c-1.533-0.058-3.08-0.017-4.61,0.041c-0.211,0.008-0.211,0.32,0,0.328
		c1.587,0.059,3.193,0.103,4.783,0.034c0.405,0.93,0.886,1.787,1.443,2.554c-1.81-0.103-3.692,0.036-5.476,0.105
		c-0.184,0.007-0.184,0.279,0,0.286c1.906,0.075,3.925,0.229,5.847,0.079c0.362,0.441,0.745,0.856,1.177,1.208
		c0.291,0.237,0.587,0.431,0.885,0.607c-2.218,0.131-4.436,0.277-6.649,0.463c-0.249,0.021-0.257,0.399,0,0.394
		c2.629-0.057,5.259-0.165,7.887-0.296c1.406,0.451,2.832,0.317,4.153-0.223c1.358-0.078,2.716-0.158,4.073-0.239
		c0.198,0.661,0.426,1.311,0.687,1.94c0.118,0.286,0.247,0.592,0.379,0.901c-4.956-0.784-10.303-0.377-15.216,0.455
		c-0.149,0.025-0.117,0.282,0.036,0.267c5.152-0.505,10.171-0.362,15.324-0.396c0.324,0.735,0.7,1.49,1.148,2.173
		c-5.067-0.272-10.252-0.021-15.262,0.704c-0.157,0.023-0.119,0.283,0.037,0.276c5.164-0.234,10.322-0.421,15.487-0.607
		c0.125,0.17,0.249,0.341,0.386,0.495C43.594,53.131,42.484,53.843,41.328,54.509z"/>
	<path style="fill:#1D1D1B;stroke:#1D1D1B;stroke-width:0;stroke-linecap:round;stroke-linejoin:round;" d="M43.499,49.334
		c0.018,0,0.018-0.028,0-0.028"/>
</g>
<g>
</g>
<g>
</g>
<g>
</g>
<g>
</g>
<g>
</g>
<g>
</g>
<g>
</g>
<g>
</g>
<g>
</g>
<g>
</g>
<g>
</g>
<g>
</g>
<g>
</g>
<g>
</g>
<g>
</g>
</svg>
