<?xml version="1.0" encoding="iso-8859-1"?>
<!-- Generator: Adobe Illustrator 18.0.0, SVG Export Plug-In . SVG Version: 6.00 Build 0)  -->
<!DOCTYPE svg PUBLIC "-//W3C//DTD SVG 1.1//EN" "http://www.w3.org/Graphics/SVG/1.1/DTD/svg11.dtd">
<svg version="1.1" id="Capa_1" xmlns="http://www.w3.org/2000/svg" xmlns:xlink="http://www.w3.org/1999/xlink" x="0px" y="0px"
	 viewBox="0 0 259.073 259.073" style="enable-background:new 0 0 259.073 259.073;" xml:space="preserve">
<g>
	<path d="M205.119,166.86c-5.287-7.365-13.971-14.562-23.646-11.584c-14.116,4.345-17.035,25.559-31.921,27.566
		c-0.113-0.059-0.207-0.148-0.352-0.15c-28.492-0.216-38.84-31.52-39.271-55.368c-0.209-11.594,1.819-23.437,7.763-33.571
		c9.029-15.392,33.303-24.988,41.282-4.892c-11.136,30.353,53.796,34.816,49.172,6.798c0.012-0.041,0.037-0.064,0.047-0.107
		c10.532-46.786-22.849-93.155-71.411-95.459c-52.149-2.474-84.539,44.109-90.152,91.39c-3.383,28.495,0.363,58.58,6.555,86.589
		c-0.509,0.025-1.016,0.067-1.525,0.09c-0.975,0.045-0.986,1.552,0,1.525c0.619-0.017,1.241-0.044,1.86-0.062
		c0.145,0.644,0.272,1.303,0.42,1.945c5.205,22.67,14.301,44.596,32.752,59.607c39.095,31.807,97.113,19.675,120.852-24.207
		c0.148-0.273,0.161-0.53,0.111-0.763C216.187,201.129,216.044,182.082,205.119,166.86z M193.908,228.97
		c-0.386,0.368-0.322,0.893-0.075,1.289c-24.969,24.579-63.147,32.301-93.773,14.734c9.42,0.434,18.841,0.835,28.272,0.986
		c0.626,0.01,0.617-0.93,0-0.967c-10.145-0.608-20.3-0.934-30.458-1.23c-3.403-2.112-6.705-4.54-9.874-7.307
		c8.839-0.434,17.638-0.157,26.446,0.922c0.598,0.073,0.743-0.96,0.143-1.059c-9.268-1.526-18.505-1.838-27.839-1.013
		c-0.605-0.552-1.217-1.089-1.812-1.667c-2.206-2.143-4.247-4.472-6.201-6.894c8.596,0.173,17.211,0.342,25.799,0.125
		c0.837-0.021,0.839-1.28,0-1.301c-8.849-0.223-17.726-0.041-26.582,0.139c-2.285-2.924-4.345-6.079-6.297-9.335
		c8.752,0.281,17.509,0.708,26.267,0.579c0.784-0.011,0.771-1.159,0-1.208c-8.8-0.562-17.628-0.563-26.443-0.715
		c-0.229-0.004-0.387,0.091-0.495,0.227c-1.998-3.434-3.794-7.052-5.458-10.774c6.855,0.243,13.679,0.139,20.508-0.675
		c0.763-0.091,0.806-1.269,0-1.227c-7.065,0.365-14.123,0.592-21.194,0.426c-1.307-3.028-2.484-6.153-3.591-9.323
		c7.163-0.314,14.328-0.593,21.472-1.225c0.715-0.063,0.741-1.148,0-1.134c-7.317,0.136-14.616,0.642-21.917,1.102
		c-1.429-4.212-2.64-8.55-3.75-12.934c17.491-0.547,35.048-1.462,52.374-3.884c1.122-0.157,0.867-2.087-0.27-1.99
		c-17.51,1.487-34.947,3.257-52.49,4.233c-0.87-3.57-1.614-7.184-2.296-10.812c6.812-0.52,13.58-0.694,20.413-0.446
		c0.683,0.025,0.68-1.031,0-1.06c-6.852-0.287-13.726-0.02-20.538,0.788c-0.643-3.483-1.177-6.981-1.663-10.476
		c9.896,0.176,19.837-0.245,29.602-1.936c0.739-0.128,0.412-1.211-0.306-1.112c-9.798,1.352-19.484,2.372-29.382,2.41
		c-0.556-4.07-0.996-8.13-1.362-12.159c10.314-0.997,20.635-1.942,30.93-3.108c1.122-0.127,1.153-1.893,0-1.785
		c-10.368,0.968-20.716,2.161-31.068,3.298c-0.38-4.462-0.617-8.844-0.793-13.171c6.299,0.102,12.549-0.275,18.784-1.328
		c0.748-0.126,0.422-1.237-0.311-1.13c-6.156,0.901-12.311,1.394-18.514,1.413c-0.146-3.934-0.21-7.781-0.215-11.541
		c12.687-0.925,25.42-1.549,38.065-2.936c0.999-0.109,1.047-1.653,0-1.599c-12.705,0.653-25.374,2.074-38.045,3.191
		c0.01-2.798,0.03-5.583,0.123-8.236c0.193-5.541,0.711-11.175,1.559-16.805c10.611-0.458,21.174-1.144,31.728-2.381
		c1.075-0.126,1.101-1.824,0-1.71c-10.492,1.076-20.997,2.096-31.521,2.815c1.428-8.952,3.737-17.859,6.919-26.357
		c13.421,0.114,26.832-0.712,40.038-3.2c1.13-0.213,0.632-1.868-0.47-1.703c-13.014,1.95-25.917,3.245-39.038,3.416
		c1.869-4.804,4.045-9.456,6.512-13.9c17.425,0.106,34.997-0.57,52.188-3.516c0.95-0.163,0.742-1.799-0.23-1.698
		c-17.098,1.773-34.041,3.525-51.222,3.914c2.874-5.005,6.146-9.717,9.824-14.04c0.091,0.096,0.215,0.167,0.388,0.17
		c12.886,0.201,25.927-0.392,38.569-3.055c1.078-0.227,0.59-1.755-0.445-1.614c-12.563,1.714-24.949,3.283-37.637,3.514
		c3.874-4.411,8.203-8.375,12.975-11.807c12.739-3.373,25.641-5.607,38.773-6.974c1.289-0.134,1.321-2.157,0-2.045
		c-11.718,0.992-23.181,3.168-34.492,6.199c7.446-4.588,15.873-7.942,25.409-9.593c52.384-9.071,92.375,36.749,84.821,87.052
		c-0.536,0.427-0.894,1.105-0.754,1.965c3.531,21.739-44.04,20.705-43.616-1.355c0.203,0.883,0.386,1.801,0.539,2.768
		c0.31,1.958,3.601,1.51,3.469-0.47c-0.833-12.522-9.526-23.935-23.231-23.484c-17.429,0.574-28.72,18.707-32.838,33.654
		c-6.931,25.158,1.003,77.864,33.785,79.096c0.118,0.138,0.273,0.263,0.485,0.36c12.044,5.544,20.456-5.583,27.014-14.326
		c6.014-8.018,12.401-14.202,23.404-10.681c8.688,2.78,14.518,16.93,16.29,24.834C213.064,202.004,205.942,217.486,193.908,228.97z"
		/>
	<path d="M77.432,99.34c-7.48,0.679-14.965,1.242-22.477,1.387c-0.729,0.014-0.732,1.132,0,1.134
		c7.528,0.021,15.008-0.297,22.477-1.257C78.219,100.503,78.255,99.265,77.432,99.34z"/>
	<path d="M74.132,73.009c-6.179,0.379-12.339,0.424-18.512-0.075c-0.718-0.058-0.707,1.049,0,1.116
		c6.179,0.582,12.329,0.69,18.512,0.112C74.859,74.094,74.88,72.963,74.132,73.009z"/>
</g>
<g>
</g>
<g>
</g>
<g>
</g>
<g>
</g>
<g>
</g>
<g>
</g>
<g>
</g>
<g>
</g>
<g>
</g>
<g>
</g>
<g>
</g>
<g>
</g>
<g>
</g>
<g>
</g>
<g>
</g>
</svg>
