<?xml version="1.0" encoding="utf-8"?>
<!-- Generator: Adobe Illustrator 16.0.0, SVG Export Plug-In . SVG Version: 6.00 Build 0)  -->
<!DOCTYPE svg PUBLIC "-//W3C//DTD SVG 1.1//EN" "http://www.w3.org/Graphics/SVG/1.1/DTD/svg11.dtd">
<svg version="1.1" id="Layer_1" xmlns="http://www.w3.org/2000/svg" xmlns:xlink="http://www.w3.org/1999/xlink" x="0px" y="0px"
	 width="128px" height="128px" viewBox="0 0 128 128" enable-background="new 0 0 128 128" xml:space="preserve">
<path d="M68.406,8l38.945,98.035c1.125,2.762,2.344,4.633,3.652,5.617c1.316,0.988,3.047,1.477,5.203,1.477H120V120H71.27v-6.871
	h4.563c3.602,0,6.082-0.414,7.441-1.258c1.359-0.836,2.039-1.941,2.039-3.32c0-1.082-0.281-2.34-0.844-3.77l-8.008-20.246H37.578
	l-3.695,9.234c-1.543,3.844-2.316,6.703-2.316,8.574c0,3.203,1.125,5.801,3.375,7.793c2.254,1.992,5.324,2.992,9.219,2.992h3.305
	V120H8v-6.871h2.254c2.539,0,4.77-0.836,6.695-2.512c2.727-2.363,4.836-5.393,6.34-9.086L60.523,8H68.406 M40.477,77.301h33.117
	L57.117,35.66L40.477,77.301 M68.406,0h-7.883c-3.277,0-6.223,1.996-7.434,5.043L15.855,98.574c-1.008,2.48-2.375,4.461-4.145,5.996
	c-0.484,0.422-0.848,0.559-1.457,0.559H8c-4.418,0-8,3.582-8,8V120c0,4.418,3.582,8,8,8h39.465c4.418,0,8-3.582,8-8v-6.871
	c0-4.418-3.582-8-8-8H44.16c-1.281,0-3-0.172-3.922-0.984c-0.379-0.336-0.672-0.688-0.672-1.801
	c0.004-0.031,0.078-1.449,1.742-5.594l1.684-4.215h28.031l4.98,12.594c-0.059,0-0.113,0-0.172,0H71.27c-4.418,0-8,3.582-8,8V120
	c0,4.418,3.582,8,8,8H120c4.418,0,8-3.582,8-8v-6.871c0-4.418-3.582-8-8-8h-3.793c-0.168,0-0.305-0.008-0.414-0.016
	c-0.223-0.348-0.586-0.996-1.031-2.098L75.84,5.047C74.633,2,71.684,0,68.406,0L68.406,0z M52.289,69.301l4.793-11.992l4.742,11.992
	H52.289L52.289,69.301z"/>
</svg>
