<svg height="512pt" viewBox="0 0 512 512" width="512pt" xmlns="http://www.w3.org/2000/svg"><path d="m343.164062 256c0-48.0625-39.101562-87.164062-87.164062-87.164062s-87.164062 39.101562-87.164062 87.164062 39.101562 87.164062 87.164062 87.164062 87.164062-39.101562 87.164062-87.164062zm-73.667968 0c0 7.441406-6.054688 13.496094-13.496094 13.496094s-13.496094-6.054688-13.496094-13.496094 6.054688-13.496094 13.496094-13.496094 13.496094 6.054688 13.496094 13.496094zm.261718-35.5625c0-12.027344 9.78125-21.808594 21.808594-21.808594 12.023438 0 21.804688 9.78125 21.804688 21.808594 0 12.023438-9.78125 21.804688-21.804688 21.804688-12.023437 0-21.808594-9.78125-21.808594-21.804688zm-13.757812 107.726562c-39.792969 0-72.164062-32.371093-72.164062-72.164062s32.371093-72.164062 72.164062-72.164062c7.144531 0 14.050781 1.042968 20.570312 2.984374-12.84375 5.753907-21.8125 18.65625-21.8125 33.613282 0 2.421875.234376 4.785156.683594 7.074218-15.457031.300782-27.9375 12.964844-27.9375 28.492188 0 15.710938 12.785156 28.496094 28.496094 28.496094 15.527344 0 28.191406-12.480469 28.492188-27.9375 2.289062.449218 4.65625.683594 7.074218.683594 14.957032 0 27.863282-8.972657 33.613282-21.8125 1.941406 6.519531 2.984374 13.425781 2.984374 20.570312 0 39.792969-32.371093 72.164062-72.164062 72.164062zm0 0"/><path d="m165.480469 206.128906 40.628906-40.625-133.917969-133.917968 31.582032-31.585938h-103.773438v103.773438l31.5625-31.5625zm-150.480469-191.128906h52.5625l-16.585938 16.585938 133.917969 133.917968-19.414062 19.414063-133.917969-133.917969-16.5625 16.5625zm0 0"/><path d="m408.226562 0 31.5625 31.5625-133.917968 133.917969 40.625 40.628906 133.917968-133.917969 31.585938 31.582032v-103.773438zm88.773438 67.5625-16.585938-16.582031-133.914062 133.914062-19.417969-19.414062 133.921875-133.917969-16.566406-16.5625h52.5625zm0 0"/><path d="m346.519531 305.871094-40.628906 40.625 133.917969 133.917968-31.582032 31.585938h103.773438v-103.773438l-31.5625 31.5625zm150.480469 191.128906h-52.5625l16.585938-16.585938-133.917969-133.917968 19.414062-19.414063 133.917969 133.917969 16.5625-16.5625zm0 0"/><path d="m206.128906 346.519531-40.628906-40.628906-133.914062 133.917969-31.585938-31.582032v103.773438h103.773438l-31.5625-31.5625zm-191.128906 150.480469v-52.5625l16.582031 16.582031 133.917969-133.914062 19.417969 19.414062-133.917969 133.917969 16.5625 16.5625zm0 0"/><path d="m186.273438 387.144531c21.3125 11.355469 45.425781 17.355469 69.726562 17.355469 24.3125 0 48.433594-6.003906 69.753906-17.371094l-7.054687-13.234375c-19.15625 10.210938-40.839844 15.605469-62.699219 15.605469-21.851562 0-43.523438-5.390625-62.675781-15.59375zm0 0"/><path d="m387.144531 325.726562c11.355469-21.3125 17.355469-45.425781 17.355469-69.726562 0-24.3125-6.003906-48.433594-17.371094-69.753906l-13.234375 7.054687c10.210938 19.15625 15.605469 40.839844 15.605469 62.699219 0 21.851562-5.390625 43.523438-15.59375 62.671875zm0 0"/><path d="m124.855469 186.273438c-11.355469 21.3125-17.355469 45.425781-17.355469 69.726562 0 24.3125 6.007812 48.433594 17.371094 69.753906l13.238281-7.054687c-10.210937-19.15625-15.609375-40.839844-15.609375-62.699219 0-21.851562 5.390625-43.523438 15.59375-62.671875zm0 0"/><path d="m325.726562 124.855469c-21.3125-11.355469-45.425781-17.355469-69.726562-17.355469-24.3125 0-48.433594 6.007812-69.753906 17.371094l7.054687 13.234375c19.15625-10.207031 40.839844-15.605469 62.699219-15.605469 21.851562 0 43.523438 5.390625 62.675781 15.59375zm0 0"/><path d="m227.285156 96.402344h15v-38.003906h-23.449218l37.164062-37.167969 37.167969 37.167969h-23.425781v38.007812h15v-23.007812h44.636718l-73.378906-73.3789068-73.378906 73.3789068h44.664062zm0 0"/><path d="m511.980469 256-73.378907-73.378906v44.636718h-23.011718v15h38.011718v-23.425781l37.167969 37.167969-37.167969 37.164062v-23.449218h-38.003906v15h23.003906v44.664062zm0 0"/><path d="m284.742188 415.59375h-15v38.007812h23.425781l-37.167969 37.167969-37.164062-37.167969h23.449218v-38.003906h-15v23.003906h-44.664062l73.378906 73.378907 73.378906-73.378907h-44.636718zm0 0"/><path d="m96.40625 242.257812v-15h-23.007812v-44.636718l-73.3789068 73.378906 73.3789068 73.378906v-44.664062h23.003906v-15h-38.003906v23.449218l-37.167969-37.164062 37.167969-37.167969v23.425781zm0 0"/><path d="m256 318.164062v-15c8.425781 0 16.695312-2.257812 23.917969-6.527343l7.632812 12.910156c-9.53125 5.636719-20.441406 8.617187-31.550781 8.617187zm40.753906-15.253906-9.84375-11.320312c3.265625-2.839844 6.125-6.109375 8.503906-9.71875l12.527344 8.253906c-3.128906 4.746094-6.894531 9.046875-11.1875 12.785156zm16.542969-22.800781-13.820313-5.832031c1.679688-3.972656 2.800782-8.160156 3.328126-12.445313l14.886718 1.84375c-.699218 5.65625-2.175781 11.1875-4.394531 16.433594zm0 0"/><path d="m412.035156 422.644531-40.644531-40.648437 10.605469-10.605469 40.644531 40.644531zm-47.714844-47.71875-10.605468-10.605469 10.605468-10.605468 10.605469 10.605468zm-17.679687-17.675781-10.605469-10.609375 10.605469-10.605469 10.605469 10.605469zm0 0"/><path d="m346.640625 175.964844-10.605469-10.605469 40.644532-40.644531 10.605468 10.605468zm47.71875-47.714844-10.609375-10.609375 10.609375-10.605469 10.605469 10.609375zm17.675781-17.679688-10.605468-10.605468 10.605468-10.605469 10.605469 10.605469zm0 0"/></svg>