<?xml version="1.0" encoding="iso-8859-1"?>
<!-- Generator: Adobe Illustrator 19.0.0, SVG Export Plug-In . SVG Version: 6.00 Build 0)  -->
<svg version="1.1" id="Capa_1" xmlns="http://www.w3.org/2000/svg" xmlns:xlink="http://www.w3.org/1999/xlink" x="0px" y="0px"
	 viewBox="0 0 512.006 512.006" style="enable-background:new 0 0 512.006 512.006;" xml:space="preserve">
<g>
	<g>
		<g>
			<path style="fill:#231F20;" d="M11.13,178.09h89.043c6.144,0,11.13-4.986,11.13-11.13V77.916c0-6.144-4.986-11.13-11.13-11.13
				H31.928l29.678-44.522h38.567c6.144,0,11.13-4.986,11.13-11.13s-4.986-11.13-11.13-11.13H55.652c-3.718,0-7.19,1.859-9.26,4.953
				L1.87,71.739c-0.082,0.123-0.148,0.252-0.224,0.377c-0.112,0.183-0.227,0.363-0.329,0.553c-0.07,0.13-0.127,0.263-0.19,0.395
				c-0.098,0.201-0.197,0.4-0.283,0.607c-0.057,0.138-0.102,0.279-0.153,0.418c-0.075,0.204-0.152,0.407-0.215,0.616
				c-0.045,0.151-0.078,0.304-0.117,0.456c-0.051,0.201-0.106,0.401-0.146,0.606c-0.033,0.169-0.053,0.339-0.078,0.509
				c-0.028,0.192-0.062,0.381-0.08,0.576c-0.018,0.193-0.021,0.386-0.029,0.579C0.018,77.593,0,77.752,0,77.916v89.044
				C0,173.104,4.986,178.09,11.13,178.09z M89.043,155.829H22.261V89.047h66.783V155.829z"/>
			<path style="fill:#231F20;" d="M166.957,178.09H256c6.144,0,11.13-4.986,11.13-11.13V77.916c0-6.144-4.986-11.13-11.13-11.13
				h-68.245l29.678-44.522H256c6.144,0,11.13-4.986,11.13-11.13S262.144,0.003,256,0.003h-44.522c-3.718,0-7.19,1.859-9.261,4.953
				l-44.522,66.783c-0.083,0.124-0.149,0.254-0.226,0.38c-0.111,0.182-0.226,0.361-0.327,0.55c-0.07,0.131-0.127,0.265-0.191,0.397
				c-0.097,0.2-0.196,0.398-0.282,0.605c-0.057,0.139-0.103,0.28-0.154,0.421c-0.075,0.203-0.151,0.405-0.214,0.614
				c-0.045,0.151-0.078,0.304-0.117,0.456c-0.051,0.201-0.106,0.401-0.146,0.606c-0.033,0.169-0.053,0.339-0.078,0.509
				c-0.028,0.192-0.062,0.381-0.08,0.576c-0.018,0.194-0.021,0.388-0.029,0.582c-0.007,0.161-0.024,0.319-0.024,0.482v89.044
				C155.826,173.104,160.813,178.09,166.957,178.09z M244.87,155.829h-66.783V89.047h66.783V155.829z"/>
			<path style="fill:#231F20;" d="M510.699,439.315c0.045-0.085,0.081-0.173,0.124-0.258c0.117-0.235,0.234-0.471,0.334-0.715
				c0.072-0.173,0.129-0.35,0.192-0.526c0.057-0.159,0.118-0.316,0.168-0.478c0.08-0.261,0.143-0.525,0.203-0.789
				c0.018-0.082,0.043-0.162,0.06-0.245c0.16-0.79,0.234-1.589,0.221-2.385v-88.871c0-6.155-4.975-11.13-11.13-11.13h-89.043
				c-6.155,0-11.13,4.975-11.13,11.13v89.044c0,6.155,4.975,11.13,11.13,11.13h68.245l-29.678,44.522h-38.567
				c-6.155,0-11.13,4.975-11.13,11.13s4.975,11.13,11.13,11.13h44.522c3.718,0,7.19-1.859,9.26-4.953l44.457-66.685
				C510.295,440.028,510.506,439.678,510.699,439.315z M422.957,356.177h66.783v66.783h-66.783V356.177z"/>
			<path style="fill:#231F20;" d="M354.995,439.06c0.118-0.236,0.234-0.473,0.336-0.718c0.072-0.173,0.129-0.348,0.191-0.523
				c0.057-0.16,0.119-0.318,0.169-0.482c0.08-0.26,0.142-0.522,0.201-0.784c0.019-0.084,0.044-0.166,0.061-0.25
				c0.16-0.79,0.233-1.588,0.221-2.383v-88.872c0-6.155-4.975-11.13-11.13-11.13H256c-6.144,0-11.13,4.975-11.13,11.13v89.044
				c0,6.155,4.986,11.13,11.13,11.13h68.245l-29.678,44.522H256c-6.144,0-11.13,4.975-11.13,11.13s4.986,11.13,11.13,11.13h44.522
				c3.718,0,7.19-1.859,9.26-4.953l44.456-66.684c0.23-0.337,0.441-0.688,0.634-1.051
				C354.918,439.231,354.953,439.144,354.995,439.06z M267.13,356.177h66.783v66.783H267.13V356.177z"/>
			<path style="fill:#231F20;" d="M322.783,178.09H500.87c6.155,0,11.13-4.986,11.13-11.13c0-6.144-4.975-11.13-11.13-11.13H322.783
				c-6.155,0-11.13,4.986-11.13,11.13C311.652,173.104,316.628,178.09,322.783,178.09z"/>
			<path style="fill:#231F20;" d="M189.217,333.916H11.13c-6.144,0-11.13,4.975-11.13,11.13c0,6.155,4.986,11.13,11.13,11.13
				h178.087c6.144,0,11.13-4.975,11.13-11.13C200.348,338.892,195.361,333.916,189.217,333.916z"/>
			<path style="fill:#231F20;" d="M11.13,267.134H500.87c6.155,0,11.13-4.975,11.13-11.13c0-6.144-4.975-11.13-11.13-11.13H11.13
				c-6.144,0-11.13,4.986-11.13,11.13C0,262.158,4.986,267.134,11.13,267.134z"/>
			<path style="fill:#231F20;" d="M189.217,422.96H11.13C4.986,422.96,0,427.935,0,434.09s4.986,11.13,11.13,11.13h178.087
				c6.144,0,11.13-4.975,11.13-11.13S195.361,422.96,189.217,422.96z"/>
			<path style="fill:#231F20;" d="M322.783,89.047H500.87c6.155,0,11.13-4.986,11.13-11.13c0-6.144-4.975-11.13-11.13-11.13H322.783
				c-6.155,0-11.13,4.986-11.13,11.13C311.652,84.06,316.628,89.047,322.783,89.047z"/>
		</g>
	</g>
</g>
<g>
</g>
<g>
</g>
<g>
</g>
<g>
</g>
<g>
</g>
<g>
</g>
<g>
</g>
<g>
</g>
<g>
</g>
<g>
</g>
<g>
</g>
<g>
</g>
<g>
</g>
<g>
</g>
<g>
</g>
</svg>
